<?xml version="1.0" standalone="no"?>
<!DOCTYPE svg PUBLIC "-//W3C//DTD SVG 20010904//EN"
 "http://www.w3.org/TR/2001/REC-SVG-20010904/DTD/svg10.dtd">
<svg version="1.0" xmlns="http://www.w3.org/2000/svg"
 width="98.000000pt" height="93.000000pt" viewBox="0 0 98.000000 93.000000"
 preserveAspectRatio="xMidYMid meet">

<g transform="translate(0.000000,93.000000) scale(0.100000,-0.100000)"
fill="#000000" stroke="none">
<path d="M355 916 c-85 -20 -147 -57 -216 -125 -70 -71 -109 -140 -128 -229
-43 -204 60 -417 245 -510 142 -71 290 -68 435 10 52 27 139 106 165 148 5 9
31 28 57 44 46 26 66 50 54 63 -3 3 -19 -4 -35 -16 -17 -12 -32 -21 -35 -21
-3 0 2 19 10 42 21 62 27 164 13 231 -54 260 -310 425 -565 363z m267 -36
c115 -43 213 -141 259 -258 18 -46 23 -77 23 -157 0 -188 -39 -235 -204 -243
-72 -4 -97 0 -163 22 -89 30 -87 29 -87 15 0 -5 26 -22 58 -37 50 -24 69 -27
157 -27 55 0 116 4 135 9 l35 8 -54 -55 c-139 -143 -345 -177 -523 -86 -58 30
-150 119 -181 177 -139 256 -7 568 274 647 73 20 196 14 271 -15z"/>
<path d="M589 583 c-21 -55 4 -154 32 -126 27 27 18 153 -11 153 -6 0 -15 -12
-21 -27z"/>
<path d="M759 583 c-21 -55 4 -154 32 -126 27 27 18 153 -11 153 -6 0 -15 -12
-21 -27z"/>
</g>
</svg>
